<svg xmlns="http://www.w3.org/2000/svg" viewBox="0 0 86.19 144.13"><defs><style>.cls-1{fill:#44d374;}.cls-2{fill:#35bc5e;}.cls-3{fill:#31b5f7;}.cls-4{fill:#1d9cce;}.cls-5{fill:#f47840;}.cls-6{fill:#e26433;opacity:0.46;}.cls-7{fill:none;}.cls-8{fill:#1d1d1d;}</style></defs><title>mocktail final icon</title><g id="Layer_2" data-name="Layer 2"><g id="Layer_1-2" data-name="Layer 1"><path class="cls-1" d="M42.75,33.33A98.41,98.41,0,0,1,41,19.25a45.18,45.18,0,0,1,10.12,4.44C54.74,14.55,63.93,4.08,63.93,4.08s1.77,14.13-.45,23.76a43.9,43.9,0,0,1,12,2.06A98.4,98.4,0,0,1,66,40.51a57.13,57.13,0,0,1,10.13,2.24S63.77,59.24,54.56,63.14a17.82,17.82,0,0,1-6.48,1.64,5.5,5.5,0,0,1-2.38-.31,5.37,5.37,0,0,1-1.83-1c-1.44-1-3.17,4.05-4.7,1.66-5.4-8.41-6.07-35.69-6.07-35.69A57.75,57.75,0,0,1,42.75,33.33Z"/><path class="cls-2" d="M36.83,56.65l6.67-.39s-2.65,1.7-3.32-1-3-19.67-3-19.67,5.48,2.58,10.51,5.17c-1.47-6.85-2.33-15-2.33-15s2,1.36,6.83,4.33C54.67,23.9,67.6,7.46,64.09,4.58c-.16-4.7-.16-.5-.16-.5S54.74,14.55,51.07,23.69A45.18,45.18,0,0,0,41,19.25a98.41,98.41,0,0,0,1.8,14.08,57.75,57.75,0,0,0-9.65-3.87S32.33,47.43,36.83,56.65Z"/><polygon class="cls-3" points="42.28 62.68 15.53 4.88 3.41 11.69 28.08 65.01 42.28 62.68"/><polygon class="cls-4" points="29.55 55.6 8.14 9.33 15.56 4.94 15.53 4.88 3.41 11.69 24.19 56.6 29.55 55.6"/><path class="cls-5" d="M58.64,142.38H27.77a15.51,15.51,0,0,1-15.28-12.85S2.88,72.38,1.86,65.6s2.9-9.17,7.77-9.17H76.56c4.86,0,8.86,3.1,7.78,9.15-2.17,12.24-10.42,64-10.42,64A15.51,15.51,0,0,1,58.64,142.38Z"/><path class="cls-6" d="M10.77,56.43,6.5,57.65C5,57.65,2,60,2.17,64.65s10.32,64.88,10.32,64.88a15.51,15.51,0,0,0,15.28,12.85H58.64c1.22,0,10-4.59,10-4.59s-19-.42-25.17-1.17c-16.56-2-23-10.16-25.83-20.33S10.77,56.43,10.77,56.43Z"/><path class="cls-7" d="M83.5,56.43H25.55c2.44,18.42,8,59.9,36.63,85.53a15.5,15.5,0,0,0,11.74-12.43l12-68.91C86.18,58.44,85,56.43,83.5,56.43Z"/><path class="cls-8" d="M43.2,118.5c-8.74,0-15.88-6.61-15.88-14.74,0-2,.87-2.46,2.11-2.71,1.77-.36,25.39,0,26.86-.09a2.52,2.52,0,0,1,2.8,2.77C59.09,111.87,52,118.5,43.2,118.5Z"/><path class="cls-8" d="M39.19,91.84a10.27,10.27,0,1,0-20.53,0c0,5.67,4.59,1.28,10.27,1.28S39.19,97.51,39.19,91.84Z"/><path class="cls-8" d="M68.83,91.84a10.27,10.27,0,1,0-20.54,0c0,5.67,4.6,1.28,10.27,1.28S68.83,97.51,68.83,91.84Z"/><path class="cls-8" d="M83.9,58.07h0a9.59,9.59,0,0,0-7.34-3.39H68.22A125.72,125.72,0,0,0,77.57,43.8L79,41.87l-2.29-.78a60,60,0,0,0-7-1.77A99.58,99.58,0,0,0,76.88,31L78.33,29,76,28.24a46.82,46.82,0,0,0-10.45-2.06c1.64-9.63.14-21.8.08-22.32L65.18,0,62.61,2.92c-.34.39-8.29,9.51-12.36,18.28a48.49,48.49,0,0,0-8.83-3.64l-2.32-.64.11,2.41a103,103,0,0,0,1.18,11,56.37,56.37,0,0,0-6.82-2.51l-2.29-.63.07,2.37c0,.13.07,2.55.35,6.14L16.33,2.43,1.15,11,21.37,54.68H9.63A9.62,9.62,0,0,0,.13,65.89l10.63,63.94a17.22,17.22,0,0,0,17,14.3H58.64a17.24,17.24,0,0,0,17-14.32L86.07,65.86A9.65,9.65,0,0,0,83.9,58.07ZM35,31.9a56.72,56.72,0,0,1,7,3l3.29,1.69L44.46,33a93.11,93.11,0,0,1-1.58-11.24,41.15,41.15,0,0,1,7.27,3.45l1.77,1.09.77-1.93c2.3-5.71,6.89-12,9.89-15.86.35,4.93.59,12.92-.81,19l-.49,2.12,2.18,0a39.8,39.8,0,0,1,9,1.28,92,92,0,0,1-7.66,8.37l-2.68,2.55,3.67.46A57.32,57.32,0,0,1,73.2,43.7a120.08,120.08,0,0,1-10,11H40.5s-2.33-5.39-4.17-9C35.34,42.12,35.14,35,35,31.9ZM14.74,7.33,36.65,54.68H25.23L5.68,12.43Zm43.9,133.3H27.77a13.73,13.73,0,0,1-13.56-11.39L3.62,65.55a6.47,6.47,0,0,1,.53-4,6.16,6.16,0,0,1,5.48-3.36H76.31a6.41,6.41,0,0,1,3.86,1.17,6.13,6.13,0,0,1,2.45,5.94L72.2,129.23A13.74,13.74,0,0,1,58.64,140.63ZM40.5,54.68l-4.17-9"/></g></g></svg>