<svg xmlns="http://www.w3.org/2000/svg" viewBox="0 0 405.03 144.13"><defs><style>.cls-1{fill:#44d374;}.cls-2{fill:#35bc5e;}.cls-3{fill:#31b5f7;}.cls-4{fill:#ebf1f2;}.cls-5{fill:#1d9cce;}.cls-6{fill:#f47840;}.cls-7{fill:#e26433;opacity:0.46;}.cls-8{fill:none;}.cls-9{fill:#1d1d1d;}</style></defs><title>mocktail final light</title><g id="Layer_2" data-name="Layer 2"><g id="Layer_1-2" data-name="Layer 1"><path class="cls-1" d="M42.75,33.33A98.41,98.41,0,0,1,41,19.25a45.18,45.18,0,0,1,10.12,4.44C54.74,14.55,63.93,4.08,63.93,4.08s1.77,14.13-.45,23.76a43.9,43.9,0,0,1,12,2.06A98.4,98.4,0,0,1,66,40.51a57.13,57.13,0,0,1,10.13,2.24S63.77,59.24,54.56,63.14a17.82,17.82,0,0,1-6.48,1.64,5.5,5.5,0,0,1-2.38-.31,5.37,5.37,0,0,1-1.83-1c-1.44-1-3.17,4.05-4.7,1.66-5.4-8.41-6.07-35.69-6.07-35.69A57.75,57.75,0,0,1,42.75,33.33Z"/><path class="cls-2" d="M36.83,56.65l6.67-.39s-2.65,1.7-3.32-1-3-19.67-3-19.67,5.48,2.58,10.51,5.17c-1.47-6.85-2.33-15-2.33-15s2,1.36,6.83,4.33C54.67,23.9,67.6,7.46,64.09,4.58c-.16-4.7-.16-.5-.16-.5S54.74,14.55,51.07,23.69A45.18,45.18,0,0,0,41,19.25a98.41,98.41,0,0,0,1.8,14.08,57.75,57.75,0,0,0-9.65-3.87S32.33,47.43,36.83,56.65Z"/><polygon class="cls-3" points="42.28 62.68 15.53 4.88 3.41 11.69 28.08 65.01 42.28 62.68"/><path class="cls-4" d="M94.77,90.22h10.61l.64,7.69c1.37-1.37,3-6.68,4.74-7.45a15.46,15.46,0,0,1,6.14-1.15,18.2,18.2,0,0,1,3.42.32,14.4,14.4,0,0,1,3.13,1,14.62,14.62,0,0,1,2.78,1.62,12.62,12.62,0,0,1,2.34,2.28A16.25,16.25,0,0,1,131,92.3a13.39,13.39,0,0,1,2.87-1.62,17.42,17.42,0,0,1,3.35-1,19.15,19.15,0,0,1,3.8-.36,16.83,16.83,0,0,1,6,1.07A13.46,13.46,0,0,1,152,93.59,15.13,15.13,0,0,1,155.26,99a22.06,22.06,0,0,1,1.2,7.65v24.25H143V108.17a12.53,12.53,0,0,0-.47-3.7,7.33,7.33,0,0,0-1.25-2.42,4.32,4.32,0,0,0-1.75-1.31,5.46,5.46,0,0,0-2-.37,5.09,5.09,0,0,0-1.48.21,8.34,8.34,0,0,0-1.39.6,6.81,6.81,0,0,0-1.31.93c-.41.37-.82.78-1.24,1.23a11.72,11.72,0,0,1,.19,1.66c0,.56,0,1.14,0,1.75v24.13H118.86V108.17a12.93,12.93,0,0,0-.45-3.7,6.81,6.81,0,0,0-1.25-2.42,4.39,4.39,0,0,0-1.75-1.31,5.5,5.5,0,0,0-2-.37,5.66,5.66,0,0,0-2.68.69,9.67,9.67,0,0,0-2.49,2v27.86H94.77Z"/><path class="cls-4" d="M183.13,89.31a24.25,24.25,0,0,1,8.46,1.45,20.56,20.56,0,0,1,6.9,4.14,19.54,19.54,0,0,1,4.67,6.56,21.07,21.07,0,0,1,1.73,8.69,23,23,0,0,1-1.71,9.12,19.74,19.74,0,0,1-4.69,6.79,20.33,20.33,0,0,1-7.12,4.26,26.42,26.42,0,0,1-9,1.47,24.94,24.94,0,0,1-8.54-1.45,20.69,20.69,0,0,1-6.95-4.14,19.25,19.25,0,0,1-4.68-6.56,21.39,21.39,0,0,1-1.7-8.69,23.35,23.35,0,0,1,1.7-9.14A19.32,19.32,0,0,1,167,95a20.6,20.6,0,0,1,7.15-4.24A26.57,26.57,0,0,1,183.13,89.31Zm-.59,11.33a7.9,7.9,0,0,0-5.83,2.56,9.3,9.3,0,0,0-1.82,3.07,11.83,11.83,0,0,0-.67,4.12,12.74,12.74,0,0,0,.69,4.38,9.1,9.1,0,0,0,1.86,3.13,7.59,7.59,0,0,0,2.74,1.88,8.88,8.88,0,0,0,3.35.64,8,8,0,0,0,3.21-.66,7.81,7.81,0,0,0,2.65-1.9,8.78,8.78,0,0,0,1.8-3,11.87,11.87,0,0,0,.66-4.1,13.19,13.19,0,0,0-.66-4.4,8.76,8.76,0,0,0-1.82-3.13,7.44,7.44,0,0,0-2.75-1.9A9.19,9.19,0,0,0,182.54,100.64Z"/><path class="cls-4" d="M240.55,128.1a22.89,22.89,0,0,1-6,2.73,24.71,24.71,0,0,1-7,1,21.7,21.7,0,0,1-8-1.45,17.57,17.57,0,0,1-6.26-4.14,18.67,18.67,0,0,1-4.06-6.56,27,27,0,0,1,.14-17.87A19.76,19.76,0,0,1,213.65,95a18.1,18.1,0,0,1,6.47-4.22,22.11,22.11,0,0,1,8.07-1.45,19.85,19.85,0,0,1,11,3.09l-2.85,10.54a11,11,0,0,0-3.17-1.68,10.59,10.59,0,0,0-3.45-.58,8.78,8.78,0,0,0-3.31.62,7.09,7.09,0,0,0-2.63,1.84,8.94,8.94,0,0,0-1.74,3,12.47,12.47,0,0,0-.64,4.19,13.54,13.54,0,0,0,.6,4.19,8.57,8.57,0,0,0,1.72,3.12,7.17,7.17,0,0,0,2.71,1.9,9.52,9.52,0,0,0,3.61.64,11.35,11.35,0,0,0,4.22-.74,12.08,12.08,0,0,0,3.51-2.16Z"/><path class="cls-4" d="M258.92,103.65a53.36,53.36,0,0,0,6.85-6.06,59.67,59.67,0,0,0,6-7.37h13.71A68.37,68.37,0,0,1,280,98.66a93.74,93.74,0,0,1-6.27,7.49q3.24,5.63,6.23,11.73t6.08,13H271.2q-1.89-4.36-3.89-8.44t-4.24-8.21c-.66.48-1.34.94-2,1.39s-1.4.87-2.11,1.27v14H245.44V71.8l13.48-1.39Z"/><path class="cls-4" d="M287.88,100.72V90.22H293v-9l13.47-1.31V90.22h9.83v10.5h-9.83v14.66a5.23,5.23,0,0,0,1.15,3.75,4.47,4.47,0,0,0,3.33,1.17,8.31,8.31,0,0,0,2.7-.44,9.72,9.72,0,0,0,2.57-1.39l1.59,10.78a18.16,18.16,0,0,1-4.88,1.9,23.07,23.07,0,0,1-5.47.64q-7.05,0-10.75-3.75T293,116.57V100.72Z"/><path class="cls-4" d="M322.31,94.38a31.17,31.17,0,0,1,8.28-3.66,35.35,35.35,0,0,1,9.67-1.29,28.39,28.39,0,0,1,7.93,1,15.13,15.13,0,0,1,5.78,3,13,13,0,0,1,3.55,5.15,20.43,20.43,0,0,1,1.21,7.35v11.77c0,1.88.79,2.81,2.37,2.81a3.93,3.93,0,0,0,1.39-.23,5.56,5.56,0,0,0,1.19-.68l1,10.07a14.94,14.94,0,0,1-3.57,1.38,17.45,17.45,0,0,1-4.28.48,11.51,11.51,0,0,1-5.52-1.19,9.17,9.17,0,0,1-3.39-3,19.28,19.28,0,0,1-2.12,1.64,14.62,14.62,0,0,1-2.7,1.41,18.49,18.49,0,0,1-3.25,1,19.07,19.07,0,0,1-3.82.36,17.8,17.8,0,0,1-6-.93,13.29,13.29,0,0,1-4.46-2.55,10.88,10.88,0,0,1-2.79-3.84,11.88,11.88,0,0,1-1-4.83,11.3,11.3,0,0,1,1.24-5.36,11.52,11.52,0,0,1,3.59-4,16.89,16.89,0,0,1,5.69-2.52,31,31,0,0,1,7.55-.85q1.55,0,2.85.12c.87.08,1.69.19,2.45.32V106a7.7,7.7,0,0,0-.45-2.79,4.67,4.67,0,0,0-1.37-1.91,5.61,5.61,0,0,0-2.3-1.1,13.16,13.16,0,0,0-3.17-.34,20.89,20.89,0,0,0-7,1.15,25.51,25.51,0,0,0-6.22,3.21Zm22.94,21.12a9.68,9.68,0,0,0-1.92-.35c-.65-.06-1.3-.08-2-.08a13,13,0,0,0-2.75.25,5.66,5.66,0,0,0-1.94.78,3.22,3.22,0,0,0-1.53,2.85,3.45,3.45,0,0,0,.3,1.47,3.17,3.17,0,0,0,.87,1.1,3.57,3.57,0,0,0,1.39.7,7.16,7.16,0,0,0,1.8.22,7.92,7.92,0,0,0,3.31-.66,7.42,7.42,0,0,0,2.43-1.72Z"/><path class="cls-4" d="M376.52,77.9a8.78,8.78,0,0,1,3.31.62,8,8,0,0,1,5,7.47,8,8,0,0,1-.64,3.23,7.89,7.89,0,0,1-1.74,2.57,7.77,7.77,0,0,1-2.63,1.69,9.18,9.18,0,0,1-3.31.59,9,9,0,0,1-3.27-.59,7.72,7.72,0,0,1-2.64-1.69,7.89,7.89,0,0,1-1.74-2.57,8.2,8.2,0,0,1-.63-3.23,8.07,8.07,0,0,1,.63-3.19,7.76,7.76,0,0,1,4.38-4.28A8.61,8.61,0,0,1,376.52,77.9Z"/><path class="cls-4" d="M369.82,96.58s2,1.07,6.74,1.07,6.73-1.07,6.73-1.07v34.3H369.82V96.58Z"/><path class="cls-4" d="M391.56,130.92V71.8L405,70.41v60.51Z"/><polygon class="cls-5" points="29.55 55.6 8.14 9.33 15.56 4.94 15.53 4.88 3.41 11.69 24.19 56.6 29.55 55.6"/><path class="cls-6" d="M58.64,142.38H27.77a15.51,15.51,0,0,1-15.28-12.85S2.88,72.38,1.86,65.6s2.9-9.17,7.77-9.17H76.56c4.86,0,8.86,3.1,7.78,9.15-2.17,12.24-10.42,64-10.42,64A15.51,15.51,0,0,1,58.64,142.38Z"/><path class="cls-7" d="M10.77,56.43,6.5,57.65C5,57.65,2,60,2.17,64.65s10.32,64.88,10.32,64.88a15.51,15.51,0,0,0,15.28,12.85H58.64c1.22,0,10-4.59,10-4.59s-19-.42-25.17-1.17c-16.56-2-23-10.16-25.83-20.33S10.77,56.43,10.77,56.43Z"/><path class="cls-8" d="M83.5,56.43H25.55c2.44,18.42,8,59.9,36.63,85.53a15.5,15.5,0,0,0,11.74-12.43l12-68.91C86.18,58.44,85,56.43,83.5,56.43Z"/><path class="cls-9" d="M43.2,118.5c-8.74,0-15.88-6.61-15.88-14.74,0-2,.87-2.46,2.11-2.71,1.77-.36,25.39,0,26.86-.09a2.52,2.52,0,0,1,2.8,2.77C59.09,111.87,52,118.5,43.2,118.5Z"/><path class="cls-9" d="M39.19,91.84a10.27,10.27,0,1,0-20.53,0c0,5.67,4.59,1.28,10.27,1.28S39.19,97.51,39.19,91.84Z"/><path class="cls-9" d="M68.83,91.84a10.27,10.27,0,1,0-20.54,0c0,5.67,4.6,1.28,10.27,1.28S68.83,97.51,68.83,91.84Z"/><path class="cls-9" d="M83.9,58.07h0a9.59,9.59,0,0,0-7.34-3.39H68.22A125.72,125.72,0,0,0,77.57,43.8L79,41.87l-2.29-.78a60,60,0,0,0-7-1.77A99.58,99.58,0,0,0,76.88,31L78.33,29,76,28.24a46.82,46.82,0,0,0-10.45-2.06c1.64-9.63.14-21.8.08-22.32L65.18,0,62.61,2.92c-.34.39-8.29,9.51-12.36,18.28a48.49,48.49,0,0,0-8.83-3.64l-2.32-.64.11,2.41a103,103,0,0,0,1.18,11,56.37,56.37,0,0,0-6.82-2.51l-2.29-.63.07,2.37c0,.13.07,2.55.35,6.14L16.33,2.43,1.15,11,21.37,54.68H9.63A9.62,9.62,0,0,0,.13,65.89l10.63,63.94a17.22,17.22,0,0,0,17,14.3H58.64a17.24,17.24,0,0,0,17-14.32L86.07,65.86A9.65,9.65,0,0,0,83.9,58.07ZM35,31.9a56.72,56.72,0,0,1,7,3l3.29,1.69L44.46,33a93.11,93.11,0,0,1-1.58-11.24,41.15,41.15,0,0,1,7.27,3.45l1.77,1.09.77-1.93c2.3-5.71,6.89-12,9.89-15.86.35,4.93.59,12.92-.81,19l-.49,2.12,2.18,0a39.8,39.8,0,0,1,9,1.28,92,92,0,0,1-7.66,8.37l-2.68,2.55,3.67.46A57.32,57.32,0,0,1,73.2,43.7a120.08,120.08,0,0,1-10,11H40.5s-2.33-5.39-4.17-9C35.34,42.12,35.14,35,35,31.9ZM14.74,7.33,36.65,54.68H25.23L5.68,12.43Zm43.9,133.3H27.77a13.73,13.73,0,0,1-13.56-11.39L3.62,65.55a6.47,6.47,0,0,1,.53-4,6.16,6.16,0,0,1,5.48-3.36H76.31a6.41,6.41,0,0,1,3.86,1.17,6.13,6.13,0,0,1,2.45,5.94L72.2,129.23A13.74,13.74,0,0,1,58.64,140.63ZM40.5,54.68l-4.17-9"/></g></g></svg>